<svg xmlns="http://www.w3.org/2000/svg" version="1.1" xmlns:xlink="http://www.w3.org/1999/xlink" xmlns:svgjs="http://svgjs.com/svgjs" width="1920" height="1080" preserveAspectRatio="none" viewBox="0 0 1920 1080"><g mask="url(&quot;#SvgjsMask1101&quot;)" fill="none"><rect width="1920" height="1080" x="0" y="0" fill="rgba(8, 41, 105, 1)"></rect><path d="M568.3038970316185 99.89236870610185L410.6643635594387 60.588418656352516 371.36041350968935 218.2279521285323 528.9999469818691 257.5319021782816z" fill="rgba(28, 83, 142, 0.4)" class="triangle-float1"></path><path d="M72.92171352161452 210.88057334337037L227.71052820422483 66.5376684864693 83.36762334732376-88.25114619614101-71.42119133528655 56.091758660760064z" fill="rgba(28, 83, 142, 0.4)" class="triangle-float1"></path><path d="M1477.719,1361.197C1580.604,1356.828,1680.165,1311.777,1729.903,1221.607C1778.163,1134.115,1756.881,1030.191,1708.535,942.747C1658.226,851.752,1581.618,769.48,1477.719,765.48C1367.902,761.253,1271.139,829.877,1213.925,923.707C1153.984,1022.011,1126.045,1146.122,1185.498,1244.722C1243.531,1340.968,1365.432,1365.965,1477.719,1361.197" fill="rgba(28, 83, 142, 0.4)" class="triangle-float2"></path><path d="M360.48393919822826 398.8554456858985L176.58912698969584 492.55453253614456 270.28821383994193 676.449344744677 454.18302604847435 582.7502578944309z" fill="rgba(28, 83, 142, 0.4)" class="triangle-float2"></path><path d="M281.299,625.306C370.167,621.594,426.681,541.3,471.176,464.284C515.702,387.214,557.805,297.737,515.921,219.199C472.288,137.383,373.719,100.737,281.299,108.24C200.028,114.838,145.867,182.317,104.526,252.598C62.368,324.268,26.172,406.255,61.805,481.383C101.99,566.108,187.609,629.219,281.299,625.306" fill="rgba(28, 83, 142, 0.4)" class="triangle-float2"></path><path d="M1385.346,430.504C1455.932,427.969,1521.983,396.015,1558.88,335.788C1597.544,272.678,1608.726,192.064,1570.101,128.93C1532.797,67.955,1456.822,52.999,1385.346,52.141C1311.859,51.259,1233.315,63.12,1192.75,124.403C1148.438,191.347,1146.04,281.128,1188.793,349.078C1229.271,413.412,1309.386,433.232,1385.346,430.504" fill="rgba(28, 83, 142, 0.4)" class="triangle-float2"></path><path d="M1706.8937105731345 585.8018889993286L1387.437937611671 580.2257677405923 1381.8618163529347 899.6815407020558 1701.3175893143982 905.2576619607921z" fill="rgba(28, 83, 142, 0.4)" class="triangle-float2"></path><path d="M1719.8075698789596 272.8981144287151L1866.304334905294 498.9547083938012 1976.853671556114 291.0416452281224z" fill="rgba(28, 83, 142, 0.4)" class="triangle-float1"></path><path d="M658.1980813260839 624.7024546263623L732.8555742005511 784.80596476355 892.9590843377389 710.1484718890829 818.3015914632717 550.044961751895z" fill="rgba(28, 83, 142, 0.4)" class="triangle-float1"></path><path d="M4.225642453921147 340.47628404818886L134.354240070502 372.9209874047148 117.95699629700047 161.50573930158058z" fill="rgba(28, 83, 142, 0.4)" class="triangle-float3"></path><path d="M1313.593329333794 950.323974500729L1515.5596710330944 803.5868380305246 1166.8561928635895 748.3576328014285z" fill="rgba(28, 83, 142, 0.4)" class="triangle-float2"></path><path d="M1019.791,72.471C1056.233,75.346,1092.946,55.043,1108.876,22.142C1123.393,-7.841,1104.94,-39.986,1088.18,-68.776C1071.574,-97.301,1052.754,-129.202,1019.791,-130.886C984.772,-132.675,953.329,-108.038,938.128,-76.439C924.601,-48.318,937.121,-17.586,952.126,9.775C967.973,38.671,986.937,69.879,1019.791,72.471" fill="rgba(28, 83, 142, 0.4)" class="triangle-float1"></path><path d="M738.96,443.031C803.677,444.25,877.099,438.667,909.842,382.831C942.818,326.599,912.541,259.227,879.803,202.856C847.262,146.825,803.747,89.632,738.96,88.593C672.913,87.533,622.158,140.473,590.066,198.208C559.041,254.023,545.692,322.038,578.874,376.598C611.05,429.504,677.049,441.865,738.96,443.031" fill="rgba(28, 83, 142, 0.4)" class="triangle-float2"></path><path d="M276.584,1243.899C376.629,1241.478,425.621,1133.276,475.128,1046.306C523.828,960.753,590.491,864.114,541.321,778.83C492.127,693.506,375.058,700.183,276.584,701.939C182.521,703.617,76.66,707.649,27.712,787.99C-22.544,870.477,14.383,971.555,60.664,1056.337C109.623,1146.025,174.433,1246.371,276.584,1243.899" fill="rgba(28, 83, 142, 0.4)" class="triangle-float2"></path><path d="M1194.973,409.079C1287.011,407.362,1374.959,364.955,1420.893,285.18C1466.74,205.557,1461.193,107.129,1414.345,28.091C1368.435,-49.364,1284.974,-93.344,1194.973,-95.968C1099.726,-98.745,1002.372,-66.432,952.268,14.619C899.804,99.487,901.685,208.91,953.971,293.888C1003.98,375.166,1099.559,410.858,1194.973,409.079" fill="rgba(28, 83, 142, 0.4)" class="triangle-float3"></path></g><defs><mask id="SvgjsMask1101"><rect width="1920" height="1080" fill="#ffffff"></rect></mask><style>
            @keyframes float1 {
                0%{transform: translate(0, 0)}
                50%{transform: translate(-10px, 0)}
                100%{transform: translate(0, 0)}
            }

            .triangle-float1 {
                animation: float1 5s infinite;
            }

            @keyframes float2 {
                0%{transform: translate(0, 0)}
                50%{transform: translate(-5px, -5px)}
                100%{transform: translate(0, 0)}
            }

            .triangle-float2 {
                animation: float2 4s infinite;
            }

            @keyframes float3 {
                0%{transform: translate(0, 0)}
                50%{transform: translate(0, -10px)}
                100%{transform: translate(0, 0)}
            }

            .triangle-float3 {
                animation: float3 6s infinite;
            }
        </style></defs></svg>