<svg xmlns="http://www.w3.org/2000/svg" version="1.1" xmlns:xlink="http://www.w3.org/1999/xlink" xmlns:svgjs="http://svgjs.com/svgjs" width="1440" height="560" preserveAspectRatio="none" viewBox="0 0 1440 560"><g mask="url(&quot;#SvgjsMask1009&quot;)" fill="none"><rect width="1440" height="560" x="0" y="0" fill="#0e2a47"></rect><path d="M 0,63 C 36,97.6 108,231.4 180,236 C 252,240.6 288,83.2 360,86 C 432,88.8 468,265 540,250 C 612,235 648,17.2 720,11 C 792,4.8 828,217.4 900,219 C 972,220.6 1008,13.2 1080,19 C 1152,24.8 1188,228.6 1260,248 C 1332,267.4 1404,142.4 1440,116L1440 560L0 560z" fill="#184a7e"></path><path d="M 0,539 C 96,509.6 288,413.8 480,392 C 672,370.2 768,435.2 960,430 C 1152,424.8 1344,378.8 1440,366L1440 560L0 560z" fill="#2264ab"></path></g><defs><mask id="SvgjsMask1009"><rect width="1440" height="560" fill="#ffffff"></rect></mask></defs></svg>